<svg width="40" height="40" viewBox="0 0 40 40" fill="none" xmlns="http://www.w3.org/2000/svg">
<g clip-path="url(#clip0_2_62)">
<path d="M0 19.6953V31.8828L6.58594 31.8516C13.5156 31.8203 13.6406 31.8125 15.0938 31.4453C15.8516 31.25 17.0781 30.6172 17.6953 30.1016C18.9297 29.0625 19.7812 27.625 20.1172 26.0156C20.2656 25.3203 20.2812 23.8984 20.1484 23.1562C19.8203 21.25 18.6875 19.8047 16.8984 18.9922L16.4844 18.8047L17.0156 18.4922C17.75 18.0469 18.5859 17.1953 18.8906 16.5625C19.6641 14.9766 19.6562 12.6016 18.8672 10.9766C17.9453 9.0625 15.9766 7.88281 13.2188 7.58593C12.7031 7.53125 10.2109 7.5 6.21094 7.5H0V19.6953ZM12.4219 11.9062C13.2734 12.0859 13.8125 12.3828 14.1172 12.8359C14.4453 13.3203 14.5312 13.6484 14.5312 14.3828C14.5312 15.5391 14.1016 16.2656 13.1953 16.6797C12.3281 17.0703 11.8438 17.1094 8.23438 17.1094H4.92188V14.4062V11.7031L8.38281 11.7422C11.1562 11.7734 11.9531 11.8047 12.4219 11.9062ZM12.8672 21.3438C13.5703 21.5547 13.9609 21.7891 14.3672 22.2344C14.8984 22.8125 15.0391 23.25 15.0312 24.2969C15.0078 26.2422 14.0703 27.2969 12.1328 27.5781C11.8359 27.6172 10.1016 27.6563 8.26562 27.6563H4.92188V24.4062V21.1641L8.69531 21.1953C11.8516 21.2188 12.5312 21.2422 12.8672 21.3438Z" fill="#FFFAFA"/>
<path d="M25.5469 10.1562V11.6406H30.8594H36.1719V10.1562V8.67188H30.8594H25.5469V10.1562Z" fill="#FFFAFA"/>
<path d="M29.6875 13.4453C26.1563 13.8047 23.375 16.0391 22.3907 19.2969C21.7422 21.4453 21.711 24.4609 22.3125 26.5312C22.9375 28.7031 24.0157 30.0469 26.0782 31.2187C27.8516 32.2344 30.3047 32.6953 32.4688 32.4297C34.836 32.1328 36.4141 31.4219 37.8125 30C38.7891 29.0156 39.461 27.9219 39.6797 26.9609L39.75 26.6406H37.2969H34.8438L34.5704 27.0625C34.0782 27.8359 33.3047 28.3437 32.2813 28.5625C30.2032 29 28.0157 28.1172 27.2422 26.5312C26.9766 25.9922 26.7188 25.0156 26.7188 24.5547V24.2187H33.375H40.0235L39.9766 22.7109C39.8985 20.125 39.5 18.6172 38.4766 17.0703C37.0157 14.8672 34.9766 13.7187 31.9922 13.4375C31.0235 13.3516 30.6407 13.3516 29.6875 13.4453ZM31.961 17.375C33.0704 17.6172 34.1016 18.3594 34.5313 19.25C34.7813 19.7656 35 20.5234 35 20.875V21.0937H30.8985H26.7969L26.8438 20.875C26.9766 20.2578 27.2266 19.5391 27.4375 19.1562C27.7579 18.5937 28.3907 17.9531 28.875 17.7109C29.6797 17.3047 30.961 17.1641 31.961 17.375Z" fill="#FFFAFA"/>
</g>
<defs>
<clipPath id="clip0_2_62">
<rect width="40" height="40" fill="white"/>
</clipPath>
</defs>
</svg>
