<svg width="20" height="20" viewBox="0 0 20 20" fill="none" xmlns="http://www.w3.org/2000/svg">
<path d="M17.4727 2.26562C16.9805 2.36719 17.2734 2.09766 11.9141 7.44531L6.93359 12.4219L5.05859 10.5469C3.03516 8.52343 2.99219 8.48828 2.49219 8.39453C2.29297 8.35937 2.18359 8.35937 2.00781 8.39062C1.56641 8.48047 1.39062 8.59765 0.8125 9.17187C0.367188 9.62109 0.257812 9.7539 0.148438 9.98047C0.03125 10.2305 0.0195312 10.2852 0.0195312 10.625C0.0195312 10.9492 0.0351562 11.0273 0.132812 11.25C0.242188 11.4883 0.433594 11.6914 3.25391 14.5195C5.42578 16.6953 6.31641 17.5625 6.46094 17.6445C6.73828 17.7969 7.11719 17.7969 7.40234 17.6484C7.55078 17.5703 9.08984 16.0508 13.6758 11.457C19.4609 5.66406 19.7578 5.35937 19.8672 5.11719C19.9648 4.89453 19.9805 4.8164 19.9805 4.49219C19.9805 3.95703 19.875 3.74609 19.293 3.14453C18.8008 2.63672 18.5625 2.44531 18.2891 2.34375C18.0586 2.25781 17.6875 2.22266 17.4727 2.26562Z" fill="#3183FF"/>
</svg>
