<svg width="22" height="22" viewBox="0 0 22 22" fill="none" xmlns="http://www.w3.org/2000/svg">
<path d="M9.81837 1.91211C7.06837 2.27305 4.61486 3.87578 3.15392 6.27344C1.95939 8.23281 1.55548 10.6563 2.04533 12.9336C2.41486 14.6523 3.26564 16.1992 4.53322 17.4668C5.57736 18.5152 6.76759 19.25 8.15978 19.7055C9.11368 20.0191 9.99454 20.1523 11.1332 20.1523H11.9024V19.25V18.3477H11.3996C10.334 18.3477 9.42306 18.2102 8.61954 17.9309C6.08009 17.05 4.24962 14.9102 3.77697 12.2633C3.64806 11.5457 3.64806 10.4543 3.77697 9.73672C4.559 5.35391 9.01056 2.66407 13.243 4.02188C15.834 4.85118 17.7418 7.04258 18.2274 9.75821C18.3176 10.2609 18.3219 10.4113 18.3262 12.375C18.3262 14.3172 18.3219 14.4762 18.2445 14.6953C18.1328 15.0219 17.7676 15.3828 17.4453 15.4945C16.7192 15.7438 15.9414 15.3957 15.6836 14.7082C15.602 14.4891 15.5977 14.373 15.5977 12.6844C15.5977 11.7004 15.5762 10.7293 15.5547 10.5273C15.4387 9.50899 15.0133 8.59375 14.3215 7.85899C13.9262 7.44219 13.5481 7.16719 12.9981 6.89649C11.6961 6.25625 10.3039 6.25625 9.00197 6.89649C8.01368 7.38203 7.32189 8.08672 6.84923 9.0836C6.26056 10.3383 6.27345 11.7348 6.8965 12.998C7.38204 13.9863 8.08673 14.6781 9.08361 15.1508C10.5102 15.8254 12.1817 15.6965 13.5008 14.807L13.7844 14.6137L13.8574 14.9359C14.0594 15.8426 14.7168 16.659 15.5805 17.0844C16.1004 17.3379 16.4742 17.4152 17.1016 17.3938C17.9481 17.3594 18.5668 17.0887 19.1899 16.4785C19.5852 16.0918 19.8301 15.7008 20.0106 15.1895L20.1309 14.8457L20.1438 12.6758C20.1524 11.2148 20.1438 10.3512 20.1094 10.0375C19.8817 7.92774 18.975 6.04141 17.4668 4.53321C15.9715 3.0336 14.0895 2.12266 12.0098 1.89063C11.4856 1.83477 10.3469 1.84336 9.81837 1.91211ZM11.5801 8.31446C12.6027 8.5293 13.4707 9.39727 13.6856 10.4199C14.0938 12.3707 12.3707 14.0938 10.4199 13.6855C9.6379 13.5223 8.90743 12.9551 8.55509 12.2461C8.15118 11.4211 8.15118 10.5789 8.55509 9.75391C9.0965 8.65821 10.3555 8.05664 11.5801 8.31446Z" fill="white"/>
</svg>
