<svg width="40" height="40" viewBox="0 0 40 40" fill="none" xmlns="http://www.w3.org/2000/svg">
<g clip-path="url(#clip0_2_78)">
<path d="M18.625 0.46875C10.7187 1.00781 3.85154 6.23438 1.16404 13.7734C0.74998 14.9141 0.367167 16.5 0.18748 17.7734C0.0077921 19 -0.00783291 21.6484 0.148417 22.8906C0.945292 29.2656 4.64061 34.8125 10.2031 37.9844C11.4844 38.7188 13.4687 39.5469 13.9765 39.5625C14.375 39.5703 14.7109 39.4063 14.8828 39.1172C15.0234 38.8828 15.0312 38.7266 15.0078 37.0313C15 36.0234 14.9844 35.1875 14.9765 35.1875C14.9687 35.1797 14.6797 35.2188 14.3359 35.2812C12.2812 35.6172 10.4531 35.1562 9.28904 33.9922C8.83592 33.5391 8.69529 33.3203 8.24217 32.3828C7.50779 30.8516 7.07811 30.2656 6.24998 29.6641C5.6406 29.2266 5.31248 28.8984 5.31248 28.7344C5.31248 28.3438 6.25779 28.2109 7.00779 28.5C7.98436 28.8672 8.63279 29.4297 9.34373 30.5156C10.3281 32.0078 11.5625 32.6719 13.1328 32.5547C13.7344 32.5078 14.9531 32.1719 15.0469 32.0234C15.0703 31.9766 15.1484 31.7266 15.2031 31.4688C15.3515 30.8438 15.7344 30.0547 16.0625 29.6875C16.375 29.3359 16.4062 29.3594 15.3906 29.2188C14.5859 29.1094 13.1875 28.75 12.5156 28.4844C9.68748 27.3672 8.05467 25.2812 7.44529 22.0078C7.24998 20.9609 7.24998 18.3906 7.44529 17.5781C7.72654 16.4141 8.24998 15.3516 8.96873 14.4688L9.30467 14.0547L9.18748 13.6875C8.78123 12.4297 8.82811 10.7969 9.31248 9.28125C9.46873 8.80469 9.49998 8.75781 9.73436 8.71094C10.5703 8.55469 12.4844 9.24219 14.2344 10.3203L15 10.7969L15.6797 10.6406C17.2734 10.2734 18.0078 10.1953 20 10.1953C22 10.1953 22.7265 10.2734 24.3203 10.6406L25.0078 10.7969L25.6094 10.4219C26.8047 9.67188 27.9844 9.11719 28.789 8.91406C29.4531 8.75 30.0312 8.67188 30.2812 8.71875C30.5 8.75781 30.539 8.8125 30.6875 9.28125C31.1328 10.6719 31.2109 12.4375 30.8672 13.5156L30.7031 14.0234L30.8594 14.2188C31.625 15.1641 32.2265 16.3203 32.5156 17.4141C32.7187 18.1797 32.7969 20.1328 32.664 21.2266C32.0859 25.9766 29.4844 28.5312 24.5312 29.2188C23.5937 29.3438 23.6094 29.3359 23.8828 29.6328C24.2422 30.0078 24.5859 30.6797 24.7812 31.375C24.9375 31.9531 24.9531 32.2031 24.9922 35.5078C25.0469 39.3516 25.0312 39.2734 25.5078 39.4688C25.875 39.625 26.3047 39.5703 27.0703 39.2656C29.789 38.2109 31.9297 36.8359 33.9765 34.8203C37.2344 31.6172 39.2812 27.4609 39.8515 22.8906C40.0078 21.6484 39.9922 19 39.8125 17.7734C38.4609 8.25 30.8203 1.125 21.2734 0.46875C20.0156 0.382812 19.9062 0.382812 18.625 0.46875Z" fill="white"/>
</g>
<defs>
<clipPath id="clip0_2_78">
<rect width="40" height="40" fill="white"/>
</clipPath>
</defs>
</svg>
