<svg width="36" height="40" viewBox="0 0 36 40" fill="none" xmlns="http://www.w3.org/2000/svg">
<path d="M7.07032 4.07813C6.00782 4.28125 4.8672 5.17188 4.38282 6.1875C4.02345 6.95313 3.91407 7.78125 4.07814 8.53906C4.25782 9.34375 4.54689 9.92188 5.03907 10.4531C7.4297 13.0234 11.6406 11.3672 11.6406 7.85156C11.6406 5.39844 9.47657 3.61719 7.07032 4.07813Z" fill="white"/>
<path d="M26.4062 14.2969C26.0391 14.375 25.5703 14.5 25.3516 14.5703C24.0469 15.0234 22.7344 16.0234 22.0312 17.125L21.7188 17.5938L21.7031 16.125L21.6797 14.6484L18.5 14.625L15.3125 14.6094V25.3125V36.0156H18.6328H21.9531V30.2891C21.9531 24.5859 21.9922 23.6562 22.2344 22.6953C22.5234 21.5703 23.2109 20.6719 24.0781 20.2734C24.9688 19.8672 26.3984 19.8203 27.2969 20.1562C28.1641 20.4844 28.8125 21.2891 29.0938 22.3906C29.3281 23.3047 29.375 24.5703 29.375 30.25V35.9375H32.6953H36.0156V29.7031C36.0156 23.2578 35.9688 21.8359 35.6953 20.3125C35.0547 16.6797 33.2109 14.7578 29.8672 14.2578C28.8125 14.1016 27.2422 14.1172 26.4062 14.2969Z" fill="white"/>
<path d="M4.53125 25.3125V36.0156H7.85156H11.1719V25.3125V14.6094H7.85156H4.53125V25.3125Z" fill="white"/>
</svg>
