<svg width="20" height="20" viewBox="0 0 20 20" fill="none" xmlns="http://www.w3.org/2000/svg">
<g clip-path="url(#clip0_9_115)">
<path d="M9.4336 0.0234394C8.3086 0.140627 7.44922 0.339846 6.5625 0.691408C5.32422 1.17969 4.31641 1.83203 3.34766 2.77344C1.49219 4.56641 0.472656 6.82813 0.367188 9.39844C0.296875 11.0586 0.714844 12.8633 1.50781 14.3242C1.60156 14.4961 1.67969 14.6641 1.67969 14.6953C1.67969 14.7227 1.30078 15.8594 0.839844 17.2188C0.378906 18.582 0 19.7266 0 19.7617C0 19.8438 0.15625 20 0.242188 20C0.273438 20 1.46094 19.6328 2.88281 19.1797C4.30078 18.7305 5.48828 18.3594 5.51953 18.3594C5.55078 18.3594 5.77344 18.4531 6.01953 18.5703C6.82031 18.9531 7.81641 19.25 8.78906 19.4023C9.42188 19.5 10.9297 19.5 11.5625 19.4023C13.707 19.0703 15.6289 18.1094 17.1289 16.6211C18.0508 15.707 18.7891 14.5977 19.2734 13.418C19.5781 12.6641 19.7773 11.9219 19.9297 10.957C19.9922 10.5313 19.9961 9.02734 19.9297 8.55469C19.6016 6.21485 18.5547 4.19141 16.8711 2.62891C15.3984 1.26563 13.6133 0.414064 11.5625 0.0976582C11.168 0.0390644 9.76953 -0.0117168 9.4336 0.0234394ZM11.3945 2.12891C13.6914 2.51172 15.6758 3.85547 16.8711 5.83203C17.3672 6.65625 17.7617 7.78125 17.8945 8.75C17.957 9.21094 17.957 10.2969 17.8945 10.7422C17.793 11.4922 17.4805 12.5039 17.1484 13.1641C16.3867 14.6875 15.0156 16.0156 13.4922 16.7227C12.4727 17.1914 11.5664 17.4063 10.4492 17.4492C8.91406 17.5039 7.47656 17.1367 6.17578 16.3555C5.98438 16.2422 5.80469 16.1641 5.7461 16.1641C5.69141 16.168 5.07422 16.3516 4.375 16.5742C3.67578 16.7969 3.10156 16.9766 3.09375 16.9727C3.08984 16.9688 3.26953 16.418 3.49609 15.7461C3.72266 15.0742 3.90625 14.4805 3.90625 14.4219C3.90625 14.3594 3.80078 14.1602 3.64844 13.9258C2.9375 12.8477 2.51172 11.5742 2.42578 10.2461C2.38672 9.69531 2.41797 8.94922 2.5 8.49609C2.94141 6.01563 4.48438 3.96094 6.73828 2.83985C7.57813 2.42188 8.42188 2.1836 9.53125 2.05469C9.81641 2.01953 11.0508 2.07031 11.3945 2.12891Z" fill="white"/>
<path d="M7.12892 5.21484C6.52345 5.30859 6.25001 5.42188 5.96485 5.69922C5.26564 6.36719 5.06642 7.69141 5.4922 8.82031C5.89454 9.89453 7.25001 11.6602 8.37501 12.5742C9.46876 13.4648 10.7188 14.0547 12.1484 14.3555C12.5274 14.4375 13.2266 14.4375 13.5313 14.3555C14.1133 14.2031 14.8164 13.6992 15.043 13.2695C15.25 12.8789 15.3438 12.0469 15.2109 11.793C15.1602 11.6953 15 11.6016 14.2461 11.2344C13.7461 10.9883 13.2227 10.7461 13.0781 10.6875C12.6016 10.5 12.4805 10.5469 12.0625 11.0703C11.5586 11.6953 11.4688 11.7969 11.4258 11.7969C11.4063 11.7969 11.25 11.7344 11.082 11.6641C10.4453 11.3828 9.55079 10.6953 8.91407 9.98828C8.64064 9.6875 8.20314 9.10938 8.20314 9.05469C8.20314 9.03516 8.32423 8.87891 8.46876 8.71094C8.83985 8.28516 8.96485 8.04688 8.95704 7.77344C8.95704 7.59375 8.89064 7.40625 8.53907 6.58203C8.3086 6.04297 8.07423 5.53906 8.01954 5.45703C7.83985 5.19531 7.6211 5.13672 7.12892 5.21484Z" fill="white"/>
</g>
<defs>
<clipPath id="clip0_9_115">
<rect width="20" height="20" fill="white"/>
</clipPath>
</defs>
</svg>
