<svg width="683" height="683" viewBox="0 0 683 683" fill="none" xmlns="http://www.w3.org/2000/svg">
<g clip-path="url(#clip0_20_3)">
<path d="M0 341.333V682.667H73.3333H146.667V462C146.667 340.667 147.067 241.333 147.733 241.467C148.267 241.467 190.933 305.867 242.667 384.667C315.333 495.467 337.333 527.867 339.333 527.867C341.333 527.867 350.667 514.667 379.333 470.933C399.867 439.6 416.667 413.067 416.533 412C416.533 410.933 364.667 326.667 301.467 224.667C238.133 122.667 180.933 30.5333 174.133 19.7333L162 -1.52588e-05H81.0667H0V341.333Z" fill="#3183FF"/>
<path d="M457.067 102.533C422 158.8 393.333 205.467 393.333 206C393.333 207.6 469.867 330.667 470.8 330.667C471.333 330.667 485.467 309.867 502.133 284.4L532.667 238.133L533.067 460.4L533.333 682.667H608H682.667V341.333V-1.52588e-05H601.733H520.667L457.067 102.533Z" fill="#3183FF"/>
<path d="M366.8 247.733L358.533 261.067L394.8 319.6C414.8 351.733 432.133 379.6 433.333 381.733L435.6 385.333L444.4 372.133L453.2 358.933L415.333 298C394.533 264.4 376.933 236.4 376.267 235.733C375.467 234.933 371.867 239.6 366.8 247.733Z" fill="#3183FF"/>
</g>
<defs>
<clipPath id="clip0_20_3">
<rect width="682.667" height="682.667" fill="white"/>
</clipPath>
</defs>
</svg>
